<?xml version="1.0" encoding="UTF-8"?>
<!DOCTYPE svg PUBLIC "-//W3C//DTD SVG 1.1//EN" "http://www.w3.org/Graphics/SVG/1.1/DTD/svg11.dtd">
<!-- Creator: CorelDRAW X6 -->
<svg xmlns="http://www.w3.org/2000/svg" xml:space="preserve" width="707mm" height="1000mm" version="1.1" style="shape-rendering:geometricPrecision; text-rendering:geometricPrecision; image-rendering:optimizeQuality; fill-rule:evenodd; clip-rule:evenodd"
viewBox="0 0 70700 100000"
 xmlns:xlink="http://www.w3.org/1999/xlink">
 <defs>
  <style type="text/css">
   <![CDATA[
    .fil3 {fill:#009846}
    .fil2 {fill:#00A0E3}
    .fil1 {fill:#393185}
    .fil7 {fill:#E31E24}
    .fil6 {fill:#F7AA47}
    .fil4 {fill:#B0CB1F}
    .fil5 {fill:#FECC00}
    .fil0 {fill:#2B2A29;fill-rule:nonzero}
   ]]>
  </style>
 </defs>
 <g id="Warstwa_x0020_1">
  <metadata id="CorelCorpID_0Corel-Layer"/>
  <g id="_175521824">
   <path class="fil0" d="M16879 15610l0 -1479 -242 0 0 -247 656 0c181,0 316,11 407,33 90,22 170,77 239,165 69,88 103,192 103,312 0,91 -20,174 -61,247 -41,74 -102,130 -181,168 109,38 194,100 253,188 59,87 88,187 88,300 0,97 -21,186 -65,265 -44,80 -103,141 -176,184 -72,44 -152,73 -239,88 -86,15 -204,23 -353,23l-671 0 0 -247 242 0zm298 -905l186 0c142,0 241,-24 297,-74 56,-50 84,-123 84,-219 0,-187 -127,-281 -381,-281l-186 0 0 574zm0 905l112 0c147,0 254,-7 322,-22 68,-14 124,-49 167,-103 43,-55 64,-124 64,-209 0,-78 -20,-143 -61,-195 -41,-53 -95,-88 -160,-106 -64,-17 -155,-26 -273,-26l-171 0 0 661zm1357 -1593c0,-43 15,-81 46,-113 31,-32 70,-48 118,-48 44,0 82,15 114,47 32,31 48,69 48,114 0,46 -16,85 -48,116 -32,32 -70,48 -114,48 -46,0 -85,-16 -116,-49 -32,-32 -48,-70 -48,-115zm39 1600l0 -893 -215 0 0 -240 484 0 0 1133 211 0 0 240 -695 0 0 -240 215 0zm651 -446c0,-212 70,-386 209,-522 140,-135 311,-203 513,-203 197,0 367,67 508,201 142,133 213,308 213,524 0,215 -70,390 -212,524 -141,134 -311,202 -509,202 -205,0 -376,-69 -514,-205 -139,-136 -208,-309 -208,-521zm284 0c0,135 43,245 128,332 84,87 188,130 310,130 124,0 227,-44 311,-131 84,-88 125,-198 125,-331 0,-135 -42,-245 -128,-333 -84,-86 -187,-130 -308,-130 -127,0 -232,45 -314,133 -82,89 -124,199 -124,330zm3053 -687l0 240 -247 0 0 1022c0,139 -7,241 -22,308 -14,66 -48,134 -102,204 -55,69 -136,128 -245,175 -109,47 -230,71 -365,71 -202,0 -383,-61 -541,-183l175 -196c119,93 249,139 389,139 78,0 150,-15 216,-44 66,-30 115,-67 148,-109 33,-42 53,-83 63,-121 9,-39 14,-103 14,-194l0 -125c-42,54 -109,105 -200,154 -90,47 -190,72 -298,72 -196,0 -356,-69 -480,-205 -124,-136 -186,-303 -186,-502 0,-217 68,-393 205,-526 137,-134 295,-201 474,-201 182,0 343,72 485,217l0 -196 517 0zm-1394 701c0,138 40,252 121,340 80,88 184,132 309,132 123,0 229,-44 318,-133 89,-88 133,-201 133,-341 0,-141 -44,-254 -133,-339 -89,-86 -192,-129 -309,-129 -117,0 -220,43 -308,127 -87,85 -131,199 -131,343zm2925 54l-1154 0c17,126 67,229 150,307 83,79 190,118 319,118 188,0 337,-76 447,-227l238 105c-77,120 -178,209 -302,268 -124,58 -253,87 -388,87 -211,0 -390,-66 -539,-197 -148,-131 -223,-307 -223,-529 0,-212 73,-385 218,-521 145,-136 312,-204 500,-204 184,0 351,66 501,199 150,133 228,331 233,594zm-278 -196c-18,-97 -69,-184 -150,-262 -81,-78 -181,-117 -299,-117 -108,0 -200,36 -277,106 -77,70 -123,161 -140,273l866 0zm497 128c0,-212 69,-386 209,-522 140,-135 311,-203 512,-203 198,0 368,67 509,201 142,133 213,308 213,524 0,215 -70,390 -212,524 -141,134 -311,202 -510,202 -204,0 -375,-69 -514,-205 -138,-136 -207,-309 -207,-521zm284 0c0,135 43,245 128,332 84,87 187,130 309,130 124,0 228,-44 312,-131 83,-88 125,-198 125,-331 0,-135 -42,-245 -128,-333 -84,-86 -188,-130 -309,-130 -126,0 -231,45 -313,133 -83,89 -124,199 -124,330zm3053 -687l0 240 -247 0 0 1022c0,139 -8,241 -22,308 -14,66 -48,134 -102,204 -55,69 -136,128 -245,175 -109,47 -230,71 -365,71 -202,0 -383,-61 -541,-183l175 -196c119,93 249,139 389,139 77,0 150,-15 215,-44 67,-30 116,-67 149,-109 32,-42 53,-83 63,-121 9,-39 14,-103 14,-194l0 -125c-43,54 -109,105 -200,154 -90,47 -190,72 -298,72 -196,0 -356,-69 -480,-205 -124,-136 -186,-303 -186,-502 0,-217 68,-393 205,-526 137,-134 294,-201 474,-201 181,0 343,72 485,217l0 -196 517 0zm-1395 701c0,138 41,252 121,340 81,88 185,132 310,132 123,0 229,-44 318,-133 89,-88 133,-201 133,-341 0,-141 -44,-254 -133,-339 -89,-86 -192,-129 -309,-129 -117,0 -220,43 -308,127 -88,85 -132,199 -132,343zm1767 432l0 -893 -276 0 0 -240 492 0 0 309c30,-80 72,-147 126,-200 54,-53 111,-88 171,-105 60,-16 142,-25 246,-25l71 0 0 272 -54 0c-137,0 -239,14 -307,41 -67,28 -118,77 -150,150 -33,72 -49,202 -49,389l0 302 299 0 0 240 -845 0 0 -240 276 0zm2304 0l0 240 -471 0 0 -168c-131,127 -276,191 -437,191 -125,0 -233,-41 -325,-122 -92,-82 -139,-186 -139,-312 0,-128 49,-234 147,-318 98,-84 216,-126 354,-126 128,0 253,38 373,116l0 -136c0,-70 -7,-124 -20,-162 -13,-38 -44,-72 -93,-102 -48,-30 -112,-45 -191,-45 -135,0 -232,54 -293,162l-259 -69c115,-213 313,-320 594,-320 103,0 192,14 267,41 75,29 131,64 168,108 37,44 62,92 74,143 13,51 20,132 20,244l0 635 231 0zm-498 -271c-116,-90 -234,-136 -353,-136 -75,0 -137,22 -187,66 -51,43 -75,99 -75,168 0,64 21,119 65,162 45,43 104,65 180,65 130,0 254,-55 370,-165l0 -160zm806 887l0 -1509 -231 0 0 -240 500 0 0 216c135,-158 297,-237 488,-237 193,0 352,66 479,198 126,133 189,305 189,517 0,222 -69,397 -206,526 -137,128 -293,193 -468,193 -181,0 -342,-71 -482,-210l0 546 267 0 0 239 -787 0 0 -239 251 0zm265 -1043c0,76 16,149 47,217 31,69 80,127 149,174 68,47 147,70 239,70 129,0 235,-43 319,-129 83,-86 125,-204 125,-354 0,-147 -44,-261 -131,-344 -88,-82 -187,-123 -299,-123 -119,0 -223,45 -314,134 -90,90 -135,208 -135,355zm1587 427l0 -1493 -248 0 0 -240 517 0 0 757c162,-130 316,-195 461,-195 91,0 166,19 224,57 59,37 99,87 120,149 21,62 32,153 32,272l0 693 234 0 0 240 -504 0 0 -839c0,-105 -3,-174 -9,-209 -7,-35 -25,-64 -55,-87 -30,-22 -65,-34 -105,-34 -105,0 -237,59 -398,178l0 751 239 0 0 240 -756 0 0 -240 248 0zm1974 216l-452 -1109 -228 0 0 -240 680 0 0 240 -165 0 297 760 290 -760 -181 0 0 -240 665 0 0 240 -204 0 -680 1748 -455 0 0 -235 268 0 165 -404zm-17776 2169c0,-212 70,-386 210,-522 140,-135 311,-203 512,-203 198,0 368,67 509,201 142,133 213,308 213,524 0,215 -71,390 -212,524 -141,134 -311,202 -510,202 -204,0 -376,-69 -514,-205 -138,-136 -208,-309 -208,-521zm285 0c0,135 43,245 127,332 85,87 188,130 310,130 124,0 228,-44 311,-131 84,-88 126,-198 126,-331 0,-135 -43,-245 -128,-332 -85,-87 -188,-131 -309,-131 -127,0 -231,45 -314,133 -82,89 -123,199 -123,330zm1549 446l0 -893 -200 0 0 -238 200 0 0 -199c0,-167 35,-283 106,-346 71,-64 155,-96 251,-96 208,0 329,105 362,316l-240 37c-9,-88 -44,-132 -103,-132 -41,0 -69,14 -84,41 -16,29 -23,88 -23,180l0 199 236 0 0 238 -236 0 0 893 261 0 0 240 -730 0 0 -240 200 0zm1383 -893l0 -240 178 0 0 -211 269 -247 0 458 255 0 0 240 -255 0 0 666c0,107 7,173 18,198 12,25 42,38 89,38 50,0 99,-10 148,-28l0 245c-70,24 -138,37 -208,37 -82,0 -149,-19 -200,-55 -50,-36 -83,-82 -96,-137 -13,-55 -20,-149 -20,-284l0 -680 -178 0zm1096 893l0 -1493 -248 0 0 -240 517 0 0 757c162,-130 316,-195 462,-195 90,0 165,19 223,57 59,37 99,87 120,149 22,62 32,153 32,272l0 693 234 0 0 240 -503 0 0 -839c0,-104 -4,-174 -10,-209 -7,-35 -25,-64 -55,-87 -30,-22 -65,-34 -105,-34 -104,0 -237,59 -398,178l0 751 239 0 0 240 -756 0 0 -240 248 0zm2914 -378l-1154 0c17,126 67,229 150,307 83,79 190,118 319,118 188,0 337,-76 447,-227l238 105c-77,120 -178,209 -302,268 -124,58 -253,87 -388,87 -211,0 -390,-66 -539,-197 -148,-131 -223,-307 -223,-529 0,-212 73,-385 218,-521 145,-136 312,-204 500,-204 184,0 351,66 501,199 150,133 228,331 233,594zm-278 -196c-18,-97 -69,-184 -150,-262 -81,-78 -181,-117 -299,-117 -108,0 -200,36 -277,106 -77,70 -123,161 -140,273l866 0zm2923 11l256 144c-57,219 -173,389 -349,509 -175,121 -377,181 -605,181 -298,0 -538,-97 -719,-290 -181,-195 -271,-434 -271,-719 0,-314 91,-563 272,-748 182,-185 419,-278 711,-278 258,0 475,71 651,211l0 -180 255 0 0 634 -255 0c-56,-128 -144,-228 -262,-298 -118,-71 -243,-106 -373,-106 -197,0 -358,71 -485,213 -126,142 -189,321 -189,537 0,222 68,404 203,545 135,141 295,211 481,211 152,0 290,-49 415,-146 125,-99 213,-238 264,-420zm1900 563l0 240 -470 0 0 -168c-131,127 -276,191 -437,191 -125,0 -234,-41 -326,-122 -91,-82 -138,-186 -138,-312 0,-128 49,-234 147,-318 98,-84 216,-126 354,-126 128,0 253,38 373,116l0 -136c0,-70 -7,-124 -20,-162 -13,-38 -44,-72 -93,-102 -48,-30 -112,-45 -191,-45 -135,0 -233,54 -293,162l-259 -69c115,-213 313,-320 593,-320 104,0 193,14 268,42 75,28 131,63 168,107 37,45 62,92 74,143 13,51 20,132 20,244l0 635 230 0zm-497 -271c-116,-90 -234,-136 -353,-136 -75,0 -138,22 -187,66 -51,43 -75,99 -75,168 0,64 21,119 65,162 44,43 104,65 179,65 131,0 255,-55 371,-165l0 -160zm875 271l0 -893 -276 0 0 -240 491 0 0 309c31,-80 73,-147 127,-199 54,-54 111,-89 171,-106 60,-16 142,-25 246,-25l71 0 0 272 -54 0c-137,0 -240,14 -307,42 -68,27 -118,76 -150,149 -33,72 -49,202 -49,389l0 302 299 0 0 240 -845 0 0 -240 276 0zm1186 616l0 -1509 -231 0 0 -240 500 0 0 216c135,-158 297,-237 488,-237 193,0 353,66 479,198 126,133 189,305 189,517 0,222 -69,397 -206,526 -137,128 -292,193 -468,193 -181,0 -342,-71 -482,-210l0 546 267 0 0 239 -787 0 0 -239 251 0zm265 -1043c0,76 16,149 47,217 31,69 81,127 149,174 68,47 148,70 240,70 128,0 234,-43 318,-128 83,-87 125,-205 125,-355 0,-147 -44,-261 -131,-344 -87,-82 -187,-123 -298,-123 -120,0 -224,45 -315,134 -90,90 -135,208 -135,355zm2784 427l0 240 -471 0 0 -168c-130,127 -276,191 -437,191 -124,0 -233,-41 -325,-122 -92,-82 -139,-186 -139,-312 0,-128 49,-234 148,-318 97,-84 215,-126 353,-126 129,0 253,38 373,116l0 -136c0,-70 -7,-124 -20,-162 -13,-38 -44,-72 -93,-102 -48,-30 -112,-45 -190,-45 -135,0 -233,54 -294,162l-258 -69c114,-213 312,-320 593,-320 103,0 192,14 267,42 76,28 131,63 168,107 37,45 62,92 75,143 13,51 19,132 19,244l0 635 231 0zm-498 -271c-116,-90 -234,-136 -353,-136 -75,0 -137,22 -187,66 -50,43 -75,99 -75,168 0,64 22,119 66,162 44,43 103,65 179,65 131,0 254,-55 370,-165l0 -160zm623 -622l0 -240 179 0 0 -211 269 -247 0 458 254 0 0 240 -254 0 0 666c0,107 6,173 18,198 11,25 41,38 88,38 51,0 100,-10 148,-28l0 245c-69,24 -138,37 -207,37 -82,0 -149,-19 -200,-55 -51,-36 -83,-82 -96,-137 -14,-55 -20,-149 -20,-284l0 -680 -179 0zm1097 893l0 -1493 -249 0 0 -240 518 0 0 757c161,-130 315,-195 461,-195 91,0 165,19 224,57 59,37 99,87 120,149 21,62 32,153 32,272l0 693 234 0 0 240 -504 0 0 -839c0,-104 -3,-174 -10,-209 -6,-35 -25,-64 -54,-87 -30,-22 -65,-34 -106,-34 -104,0 -236,59 -397,178l0 751 238 0 0 240 -756 0 0 -240 249 0zm1626 -1600c0,-43 15,-81 46,-113 31,-32 70,-48 117,-48 44,0 83,15 115,47 32,31 48,69 48,114 0,46 -16,85 -48,116 -32,32 -71,48 -115,48 -45,0 -84,-16 -115,-49 -32,-32 -48,-70 -48,-115zm38 1600l0 -893 -214 0 0 -240 484 0 0 1133 211 0 0 240 -695 0 0 -240 214 0zm2045 0l0 240 -470 0 0 -168c-131,127 -277,191 -437,191 -125,0 -234,-41 -326,-122 -92,-82 -138,-186 -138,-312 0,-128 49,-234 147,-318 98,-84 215,-126 354,-126 128,0 253,38 373,116l0 -136c0,-70 -7,-124 -20,-162 -13,-38 -44,-72 -93,-102 -49,-30 -113,-45 -191,-45 -135,0 -233,54 -293,162l-259 -69c115,-213 312,-320 593,-320 103,0 192,14 267,42 76,28 132,63 169,107 37,45 61,92 74,143 13,51 19,132 19,244l0 635 231 0zm-497 -271c-117,-90 -234,-136 -353,-136 -75,0 -138,22 -188,66 -50,43 -75,99 -75,168 0,64 22,119 66,162 44,43 104,65 179,65 131,0 254,-55 371,-165l0 -160zm1123 -862l0 166c173,-125 331,-187 474,-187 89,0 162,21 220,63 58,42 97,94 115,155 17,61 26,150 26,267l0 669 232 0 0 240 -501 0 0 -898c0,-104 -15,-171 -47,-203 -31,-32 -69,-48 -115,-48 -119,0 -254,58 -404,175l0 734 237 0 0 240 -748 0 0 -240 242 0 0 -893 -242 0 0 -240 511 0zm1195 1373l0 -471 241 0 0 45c9,65 44,118 105,159 61,42 133,63 216,63 87,0 156,-15 209,-46 51,-30 78,-72 78,-126 0,-52 -22,-90 -65,-115 -43,-24 -128,-47 -256,-68 -189,-32 -324,-84 -405,-155 -81,-72 -121,-164 -121,-277 0,-115 44,-210 132,-287 88,-77 203,-116 347,-116 130,0 241,26 335,79l0 -58 240 0 0 455 -240 0 0 -83c-73,-113 -179,-169 -318,-169 -71,0 -129,15 -175,46 -46,31 -68,72 -68,123 0,52 20,88 62,107 43,19 133,40 272,61 133,21 234,46 302,73 68,29 124,75 170,139 45,65 67,141 67,227 0,127 -49,229 -147,304 -98,75 -224,113 -381,113 -146,0 -266,-33 -359,-99l0 76 -241 0z"/>
   <ellipse class="fil1" cx="35683" cy="12047" rx="219" ry="222"/>
   <ellipse class="fil1" cx="36026" cy="11453" rx="219" ry="222"/>
   <ellipse class="fil1" cx="36370" cy="10858" rx="219" ry="222"/>
   <ellipse class="fil1" cx="36713" cy="11453" rx="219" ry="222"/>
   <ellipse class="fil1" cx="37056" cy="10858" rx="219" ry="222"/>
   <ellipse class="fil1" cx="37400" cy="10263" rx="219" ry="222"/>
   <ellipse class="fil2" cx="36713" cy="12642" rx="219" ry="222"/>
   <ellipse class="fil2" cx="37056" cy="12048" rx="219" ry="222"/>
   <ellipse class="fil2" cx="37400" cy="11453" rx="219" ry="222"/>
   <ellipse class="fil1" cx="37743" cy="10858" rx="219" ry="222"/>
   <ellipse class="fil1" cx="38086" cy="10263" rx="219" ry="222"/>
   <ellipse class="fil2" cx="38430" cy="9669" rx="219" ry="222"/>
   <ellipse class="fil2" cx="38086" cy="11453" rx="219" ry="222"/>
   <ellipse class="fil2" cx="38430" cy="10858" rx="219" ry="222"/>
   <ellipse class="fil1" cx="38773" cy="10263" rx="219" ry="222"/>
   <ellipse class="fil2" cx="38430" cy="12047" rx="219" ry="222"/>
   <ellipse class="fil2" cx="38773" cy="11453" rx="219" ry="222"/>
   <ellipse class="fil2" cx="39117" cy="10858" rx="219" ry="222"/>
   <ellipse class="fil3" cx="39117" cy="12047" rx="219" ry="222"/>
   <ellipse class="fil2" cx="39460" cy="11453" rx="219" ry="222"/>
   <ellipse class="fil2" cx="39803" cy="10858" rx="219" ry="222"/>
   <ellipse class="fil2" cx="40147" cy="10263" rx="219" ry="222"/>
   <ellipse class="fil1" cx="40490" cy="9669" rx="219" ry="222"/>
   <ellipse class="fil3" cx="39116" cy="13237" rx="219" ry="222"/>
   <ellipse class="fil3" cx="39460" cy="12642" rx="219" ry="222"/>
   <ellipse class="fil3" cx="39803" cy="12048" rx="219" ry="222"/>
   <ellipse class="fil1" cx="40147" cy="11453" rx="219" ry="222"/>
   <ellipse class="fil2" cx="40490" cy="10858" rx="219" ry="222"/>
   <ellipse class="fil2" cx="40833" cy="10263" rx="219" ry="222"/>
   <ellipse class="fil3" cx="39803" cy="13237" rx="219" ry="222"/>
   <ellipse class="fil3" cx="40147" cy="12642" rx="219" ry="222"/>
   <ellipse class="fil3" cx="40490" cy="12048" rx="219" ry="222"/>
   <ellipse class="fil3" cx="40833" cy="11453" rx="219" ry="222"/>
   <ellipse class="fil2" cx="41177" cy="10858" rx="219" ry="222"/>
   <ellipse class="fil2" cx="41520" cy="10263" rx="219" ry="222"/>
   <ellipse class="fil3" cx="40490" cy="13237" rx="219" ry="222"/>
   <ellipse class="fil3" cx="40833" cy="12642" rx="219" ry="222"/>
   <ellipse class="fil3" cx="41177" cy="12048" rx="219" ry="222"/>
   <ellipse class="fil3" cx="41520" cy="11453" rx="219" ry="222"/>
   <ellipse class="fil3" cx="41864" cy="10858" rx="219" ry="222"/>
   <ellipse class="fil2" cx="42207" cy="10263" rx="219" ry="222"/>
   <ellipse class="fil4" cx="41177" cy="13237" rx="219" ry="222"/>
   <ellipse class="fil3" cx="41520" cy="12642" rx="219" ry="222"/>
   <ellipse class="fil4" cx="41863" cy="12048" rx="219" ry="222"/>
   <ellipse class="fil5" cx="42207" cy="11453" rx="219" ry="222"/>
   <ellipse class="fil3" cx="42550" cy="10858" rx="219" ry="222"/>
   <ellipse class="fil1" cx="42894" cy="10263" rx="219" ry="222"/>
   <ellipse class="fil3" cx="42207" cy="12642" rx="219" ry="222"/>
   <ellipse class="fil3" cx="42550" cy="12048" rx="219" ry="222"/>
   <ellipse class="fil3" cx="42893" cy="11453" rx="219" ry="222"/>
   <ellipse class="fil3" cx="43237" cy="10858" rx="219" ry="222"/>
   <ellipse class="fil4" cx="43580" cy="10263" rx="219" ry="222"/>
   <ellipse class="fil4" cx="43924" cy="9669" rx="219" ry="222"/>
   <ellipse class="fil6" cx="43924" cy="16805" rx="219" ry="222"/>
   <ellipse class="fil6" cx="44267" cy="16211" rx="219" ry="222"/>
   <ellipse class="fil6" cx="44610" cy="15616" rx="219" ry="222"/>
   <ellipse class="fil6" cx="44954" cy="15021" rx="219" ry="222"/>
   <ellipse class="fil6" cx="45297" cy="14426" rx="219" ry="222"/>
   <ellipse class="fil5" cx="45641" cy="13832" rx="219" ry="222"/>
   <ellipse class="fil6" cx="44267" cy="17400" rx="219" ry="222"/>
   <ellipse class="fil6" cx="44610" cy="16805" rx="219" ry="222"/>
   <ellipse class="fil6" cx="44954" cy="16211" rx="219" ry="222"/>
   <ellipse class="fil7" cx="45297" cy="15616" rx="219" ry="222"/>
   <ellipse class="fil6" cx="45641" cy="15021" rx="219" ry="222"/>
   <ellipse class="fil6" cx="45984" cy="14426" rx="219" ry="222"/>
   <ellipse class="fil7" cx="43580" cy="19779" rx="219" ry="222"/>
   <ellipse class="fil7" cx="43924" cy="19184" rx="219" ry="222"/>
   <ellipse class="fil7" cx="44267" cy="18590" rx="219" ry="222"/>
   <ellipse class="fil7" cx="44610" cy="17995" rx="219" ry="222"/>
   <ellipse class="fil6" cx="44954" cy="17400" rx="219" ry="222"/>
   <ellipse class="fil6" cx="45297" cy="16805" rx="219" ry="222"/>
   <ellipse class="fil7" cx="43924" cy="20374" rx="219" ry="222"/>
   <ellipse class="fil7" cx="44267" cy="19779" rx="219" ry="222"/>
   <ellipse class="fil7" cx="44610" cy="19184" rx="219" ry="222"/>
   <ellipse class="fil7" cx="44954" cy="18589" rx="219" ry="222"/>
   <ellipse class="fil6" cx="45297" cy="17995" rx="219" ry="222"/>
   <ellipse class="fil5" cx="45641" cy="17400" rx="219" ry="222"/>
   <ellipse class="fil7" cx="45297" cy="19184" rx="219" ry="222"/>
   <ellipse class="fil7" cx="45641" cy="18590" rx="219" ry="222"/>
   <ellipse class="fil6" cx="45984" cy="17995" rx="219" ry="222"/>
   <ellipse class="fil6" cx="46327" cy="17400" rx="219" ry="222"/>
   <ellipse class="fil6" cx="46671" cy="16805" rx="219" ry="222"/>
   <ellipse class="fil7" cx="45640" cy="19779" rx="219" ry="222"/>
   <ellipse class="fil7" cx="45984" cy="19184" rx="219" ry="222"/>
   <ellipse class="fil7" cx="46327" cy="18590" rx="219" ry="222"/>
   <ellipse class="fil6" cx="46671" cy="17995" rx="219" ry="222"/>
   <ellipse class="fil7" cx="47014" cy="17400" rx="219" ry="222"/>
   <ellipse class="fil6" cx="47357" cy="16805" rx="219" ry="222"/>
   <ellipse class="fil7" cx="46671" cy="19184" rx="219" ry="222"/>
   <ellipse class="fil7" cx="47014" cy="18590" rx="219" ry="222"/>
   <ellipse class="fil6" cx="47357" cy="17995" rx="219" ry="222"/>
   <ellipse class="fil6" cx="47701" cy="17400" rx="219" ry="222"/>
   <ellipse class="fil4" cx="48044" cy="16805" rx="219" ry="222"/>
   <ellipse class="fil5" cx="48388" cy="16211" rx="219" ry="222"/>
   <ellipse class="fil5" cx="47357" cy="19184" rx="219" ry="222"/>
   <ellipse class="fil7" cx="47701" cy="18590" rx="219" ry="222"/>
   <ellipse class="fil6" cx="48044" cy="17995" rx="219" ry="222"/>
   <ellipse class="fil5" cx="48387" cy="17400" rx="219" ry="222"/>
   <ellipse class="fil5" cx="48731" cy="16805" rx="219" ry="222"/>
   <ellipse class="fil5" cx="49074" cy="16211" rx="219" ry="222"/>
   <ellipse class="fil7" cx="48387" cy="18589" rx="219" ry="222"/>
   <ellipse class="fil5" cx="48731" cy="17995" rx="219" ry="222"/>
   <ellipse class="fil5" cx="49074" cy="17400" rx="219" ry="222"/>
   <ellipse class="fil5" cx="49418" cy="16805" rx="219" ry="222"/>
   <ellipse class="fil4" cx="49761" cy="16211" rx="219" ry="222"/>
   <ellipse class="fil4" cx="50104" cy="15616" rx="219" ry="222"/>
   <ellipse class="fil6" cx="45640" cy="16211" rx="219" ry="222"/>
   <ellipse class="fil6" cx="45984" cy="15616" rx="219" ry="222"/>
   <ellipse class="fil6" cx="46327" cy="15021" rx="219" ry="222"/>
   <ellipse class="fil6" cx="46671" cy="14426" rx="219" ry="222"/>
   <ellipse class="fil5" cx="47014" cy="13832" rx="219" ry="222"/>
   <ellipse class="fil5" cx="47357" cy="13237" rx="219" ry="222"/>
   <ellipse class="fil6" cx="45984" cy="16805" rx="219" ry="222"/>
   <ellipse class="fil6" cx="46327" cy="16211" rx="219" ry="222"/>
   <ellipse class="fil5" cx="46671" cy="15616" rx="219" ry="222"/>
   <ellipse class="fil4" cx="47014" cy="15021" rx="219" ry="222"/>
   <ellipse class="fil6" cx="47357" cy="14426" rx="219" ry="222"/>
   <ellipse class="fil5" cx="47701" cy="13832" rx="219" ry="222"/>
   <ellipse class="fil6" cx="47014" cy="16211" rx="219" ry="222"/>
   <ellipse class="fil6" cx="47357" cy="15616" rx="219" ry="222"/>
   <ellipse class="fil6" cx="47701" cy="15021" rx="219" ry="222"/>
   <ellipse class="fil7" cx="48044" cy="14426" rx="219" ry="222"/>
   <ellipse class="fil4" cx="48387" cy="13832" rx="219" ry="222"/>
   <ellipse class="fil4" cx="48731" cy="19184" rx="219" ry="222"/>
   <ellipse class="fil4" cx="49074" cy="18590" rx="219" ry="222"/>
   <ellipse class="fil4" cx="49418" cy="17995" rx="219" ry="222"/>
   <ellipse class="fil4" cx="49761" cy="17400" rx="219" ry="222"/>
   <ellipse class="fil4" cx="50104" cy="16805" rx="219" ry="222"/>
   <ellipse class="fil4" cx="50448" cy="16211" rx="219" ry="222"/>
   <ellipse class="fil5" cx="44610" cy="12047" rx="219" ry="222"/>
   <ellipse class="fil5" cx="45641" cy="12642" rx="219" ry="222"/>
   <ellipse class="fil5" cx="45984" cy="13237" rx="219" ry="222"/>
   <ellipse class="fil5" cx="46327" cy="13832" rx="219" ry="222"/>
   <ellipse class="fil3" cx="45641" cy="11453" rx="219" ry="222"/>
   <ellipse class="fil5" cx="45297" cy="12048" rx="219" ry="222"/>
   <ellipse class="fil5" cx="46327" cy="12642" rx="219" ry="222"/>
   <ellipse class="fil4" cx="46671" cy="13237" rx="219" ry="222"/>
   <ellipse class="fil4" cx="44610" cy="9669" rx="219" ry="222"/>
   <ellipse class="fil3" cx="44954" cy="10263" rx="219" ry="222"/>
   <ellipse class="fil4" cx="45297" cy="10858" rx="219" ry="222"/>
   <ellipse class="fil3" cx="45984" cy="10858" rx="219" ry="222"/>
   <ellipse class="fil4" cx="46327" cy="11453" rx="219" ry="222"/>
   <ellipse class="fil4" cx="45984" cy="12047" rx="219" ry="222"/>
   <ellipse class="fil5" cx="47014" cy="12642" rx="219" ry="222"/>
   <ellipse class="fil1" cx="41177" cy="9669" rx="219" ry="222"/>
   <ellipse class="fil1" cx="41864" cy="9669" rx="219" ry="222"/>
   <ellipse class="fil1" cx="42550" cy="9669" rx="219" ry="222"/>
   <ellipse class="fil1" cx="43237" cy="9669" rx="219" ry="222"/>
   <ellipse class="fil1" cx="39117" cy="9669" rx="219" ry="222"/>
   <ellipse class="fil1" cx="39803" cy="9669" rx="219" ry="222"/>
   <ellipse class="fil1" cx="42893" cy="9074" rx="219" ry="222"/>
   <ellipse class="fil2" cx="43580" cy="9074" rx="219" ry="222"/>
   <ellipse class="fil5" cx="43924" cy="10858" rx="219" ry="222"/>
   <ellipse class="fil2" cx="44610" cy="10858" rx="219" ry="222"/>
   <ellipse class="fil5" cx="44267" cy="11453" rx="219" ry="222"/>
   <ellipse class="fil5" cx="44954" cy="11453" rx="219" ry="222"/>
   <ellipse class="fil4" cx="44267" cy="10263" rx="219" ry="222"/>
   <ellipse class="fil1" cx="39460" cy="10263" rx="219" ry="222"/>
   <ellipse class="fil3" cx="42893" cy="12642" rx="219" ry="222"/>
   <ellipse class="fil4" cx="48044" cy="13237" rx="219" ry="222"/>
   <ellipse class="fil3" cx="46670" cy="12047" rx="219" ry="222"/>
   <ellipse class="fil4" cx="47701" cy="12642" rx="219" ry="222"/>
   <ellipse class="fil4" cx="49418" cy="15616" rx="219" ry="222"/>
   <ellipse class="fil4" cx="48731" cy="14426" rx="219" ry="222"/>
   <ellipse class="fil4" cx="49074" cy="15021" rx="219" ry="222"/>
   <ellipse class="fil5" cx="49761" cy="15021" rx="219" ry="222"/>
   <ellipse class="fil4" cx="49074" cy="13832" rx="219" ry="222"/>
   <ellipse class="fil4" cx="49418" cy="14426" rx="219" ry="222"/>
   <ellipse class="fil6" cx="47701" cy="16210" rx="219" ry="222"/>
   <ellipse class="fil6" cx="48044" cy="15616" rx="219" ry="222"/>
   <ellipse class="fil5" cx="48387" cy="15021" rx="219" ry="222"/>
   <ellipse class="fil5" cx="50104" cy="17995" rx="219" ry="222"/>
   <ellipse class="fil4" cx="50448" cy="17400" rx="219" ry="222"/>
   <ellipse class="fil4" cx="50791" cy="16805" rx="219" ry="222"/>
   <ellipse class="fil4" cx="50104" cy="19184" rx="219" ry="222"/>
   <ellipse class="fil4" cx="50448" cy="18589" rx="219" ry="222"/>
   <ellipse class="fil4" cx="50791" cy="17995" rx="219" ry="222"/>
   <ellipse class="fil4" cx="49418" cy="19184" rx="219" ry="222"/>
   <ellipse class="fil4" cx="49761" cy="18589" rx="219" ry="222"/>
   <ellipse class="fil5" cx="48731" cy="15616" rx="219" ry="222"/>
   <ellipse class="fil7" cx="42893" cy="19779" rx="219" ry="222"/>
   <ellipse class="fil7" cx="43580" cy="18589" rx="219" ry="222"/>
   <ellipse class="fil6" cx="44267" cy="15021" rx="219" ry="222"/>
   <ellipse class="fil1" cx="42207" cy="9074" rx="219" ry="222"/>
   <ellipse class="fil6" cx="44610" cy="14426" rx="219" ry="222"/>
   <ellipse class="fil5" cx="43580" cy="11453" rx="219" ry="222"/>
   <ellipse class="fil5" cx="45297" cy="13237" rx="219" ry="222"/>
   <ellipse class="fil4" cx="50791" cy="15616" rx="219" ry="222"/>
   <ellipse class="fil4" cx="50448" cy="15021" rx="219" ry="222"/>
   <ellipse class="fil6" cx="43237" cy="16805" rx="219" ry="222"/>
   <ellipse class="fil7" cx="43237" cy="19184" rx="219" ry="222"/>
   <ellipse class="fil1" cx="40147" cy="9074" rx="219" ry="222"/>
   <ellipse class="fil2" cx="40833" cy="9074" rx="219" ry="222"/>
   <ellipse class="fil4" cx="47357" cy="12047" rx="219" ry="222"/>
   <ellipse class="fil4" cx="48731" cy="13237" rx="219" ry="222"/>
  </g>
 </g>
</svg>
